<svg xmlns="http://www.w3.org/2000/svg" version="1.1" xmlns:xlink="http://www.w3.org/1999/xlink" xmlns:svgjs="http://svgjs.dev/svgjs" width="1500" height="935" viewBox="0 0 1500 935"><g transform="matrix(1,0,0,1,-0.9090909090909918,0.3785425101214628)"><svg viewBox="0 0 396 247" data-background-color="#ffffff" preserveAspectRatio="xMidYMid meet" height="935" width="1500" xmlns="http://www.w3.org/2000/svg" xmlns:xlink="http://www.w3.org/1999/xlink"><g id="tight-bounds" transform="matrix(1,0,0,1,0.2400000000000091,-0.09999999999999432)"><svg viewBox="0 0 395.52 247.2" height="247.2" width="395.52"><g><svg></svg></g><g><svg viewBox="0 0 395.52 247.2" height="247.2" width="395.52"><mask id="c6a406c0-394d-4360-935f-c21c4869367c"><rect width="640" height="400" fill="white"></rect><g transform="matrix(1,0,0,1,39.55199999999999,39.192489377988025)"><svg viewBox="0 0 316.416 168.81502124402394" height="168.81502124402394" width="316.416"><g><svg viewBox="0 0 316.416 168.81502124402394" height="168.81502124402394" width="316.416"><g><svg viewBox="0 0 316.416 168.81502124402394" height="168.81502124402394" width="316.416"><g><svg viewBox="0 0 316.416 168.81502124402394" height="168.81502124402394" width="316.416"><g id="SvgjsG3351"><svg viewBox="0 0 316.416 168.81502124402394" height="168.81502124402394" width="316.416" id="SvgjsSvg3350"><g><svg viewBox="0 0 316.416 168.81502124402394" height="168.81502124402394" width="316.416"><g transform="matrix(1,0,0,1,0,0)"><svg width="316.416" viewBox="0.16999999999999993 -38.52 78.83 42.52" height="168.81502124402394" data-palette-color="#fe7833"><path d="M4.17 0L4.17-34.52 15.11-34.52 15.11-21.09 25.27-21.09 25.27-34.52 36.21-34.52 36.21 0 25.27 0 25.27-14.06 15.11-14.06 15.11 0 4.17 0ZM44.53 0L44.53-34.52 56.15-34.52Q57.66-34.52 59.48-34.41 61.3-34.3 63.13-33.97 64.96-33.64 66.67-33.04 68.38-32.45 69.71-31.48 71.04-30.52 71.84-29.11 72.63-27.71 72.63-25.78L72.63-25.78Q72.63-24.63 72.36-23.5 72.09-22.36 71.4-21.41 70.7-20.46 69.49-19.75 68.28-19.04 66.4-18.75L66.4-18.75Q68.45-18.63 70.05-17.81 71.65-16.99 72.75-15.77 73.85-14.55 74.42-13.07 75-11.6 75-10.16L75-10.16Q75-8.23 74.22-6.41 73.44-4.59 71.59-3.16 69.75-1.73 66.72-0.87 63.69 0 59.2 0L59.2 0 44.53 0ZM55.47-14.06L55.47-6.25 59.89-6.25Q61.98-6.25 63.02-7.34 64.06-8.42 64.06-10.16L64.06-10.16Q64.06-11.18 63.71-11.91 63.35-12.65 62.4-13.12 61.45-13.6 59.78-13.83 58.1-14.06 55.47-14.06L55.47-14.06ZM55.47-20.31L58.88-20.31Q60.03-20.31 60.98-20.64 61.94-20.97 62.62-21.51 63.3-22.05 63.68-22.75 64.06-23.46 64.06-24.22L64.06-24.22Q64.06-25.39 63.6-26.15 63.13-26.9 62.11-27.34 61.08-27.78 59.45-27.95 57.81-28.13 55.47-28.13L55.47-28.13 55.47-20.31Z" opacity="1" transform="matrix(1,0,0,1,0,0)" fill="black" class="wordmark-text-0" id="SvgjsPath3349" stroke-width="7" stroke="black" stroke-linejoin="round"></path></svg></g></svg></g></svg></g></svg></g></svg></g></svg></g></svg></g></mask><g transform="matrix(1,0,0,1,39.55199999999999,39.192489377988025)"><svg viewBox="0 0 316.416 168.81502124402394" height="168.81502124402394" width="316.416"><g><svg viewBox="0 0 316.416 168.81502124402394" height="168.81502124402394" width="316.416"><g><svg viewBox="0 0 316.416 168.81502124402394" height="168.81502124402394" width="316.416"><g><svg viewBox="0 0 316.416 168.81502124402394" height="168.81502124402394" width="316.416"><g id="textblocktransform"><svg viewBox="0 0 316.416 168.81502124402394" height="168.81502124402394" width="316.416" id="textblock"><g><svg viewBox="0 0 316.416 168.81502124402394" height="168.81502124402394" width="316.416"><g transform="matrix(1,0,0,1,0,0)"><svg width="316.416" viewBox="0.16999999999999993 -38.52 78.83 42.52" height="168.81502124402394" data-palette-color="#fe7833"><path d="M4.17 0L4.17-34.52 15.11-34.52 15.11-21.09 25.27-21.09 25.27-34.52 36.21-34.52 36.21 0 25.27 0 25.27-14.06 15.11-14.06 15.11 0 4.17 0ZM44.53 0L44.53-34.52 56.15-34.52Q57.66-34.52 59.48-34.41 61.3-34.3 63.13-33.97 64.96-33.64 66.67-33.04 68.38-32.45 69.71-31.48 71.04-30.52 71.84-29.11 72.63-27.71 72.63-25.78L72.63-25.78Q72.63-24.63 72.36-23.5 72.09-22.36 71.4-21.41 70.7-20.46 69.49-19.75 68.28-19.04 66.4-18.75L66.4-18.75Q68.45-18.63 70.05-17.81 71.65-16.99 72.75-15.77 73.85-14.55 74.42-13.07 75-11.6 75-10.16L75-10.16Q75-8.23 74.22-6.41 73.44-4.59 71.59-3.16 69.75-1.73 66.72-0.87 63.69 0 59.2 0L59.2 0 44.53 0ZM55.47-14.06L55.47-6.25 59.89-6.25Q61.98-6.25 63.02-7.34 64.06-8.42 64.06-10.16L64.06-10.16Q64.06-11.18 63.71-11.91 63.35-12.65 62.4-13.12 61.45-13.6 59.78-13.83 58.1-14.06 55.47-14.06L55.47-14.06ZM55.47-20.31L58.88-20.31Q60.03-20.31 60.98-20.64 61.94-20.97 62.62-21.51 63.3-22.05 63.68-22.75 64.06-23.46 64.06-24.22L64.06-24.22Q64.06-25.39 63.6-26.15 63.13-26.9 62.11-27.34 61.08-27.78 59.45-27.95 57.81-28.13 55.47-28.13L55.47-28.13 55.47-20.31Z" opacity="1" transform="matrix(1,0,0,1,0,0)" fill="#fe7833" class="wordmark-text-0" data-fill-palette-color="primary" id="text-0"></path></svg></g></svg></g></svg></g></svg></g></svg></g></svg></g></svg></g><g mask="url(#c6a406c0-394d-4360-935f-c21c4869367c)"><g transform="matrix(2.7244444444444444, 0, 0, 2.7244444444444444, 75.16, 1)"><svg xmlns="http://www.w3.org/2000/svg" xmlns:xlink="http://www.w3.org/1999/xlink" version="1.1" x="0" y="0" viewBox="5 5 90 90" enable-background="new 0 0 100 100" xml:space="preserve" height="90" width="90" class="icon-none" data-fill-palette-color="accent" id="none"><path d="M50 5C25.187 5 5 25.187 5 50S25.187 95 50 95 95 74.813 95 50 74.813 5 50 5M50.146 14.084C55.473 23.841 65.266 41.798 67.732 46.39 66.95 46.885 65.464 47.523 63.181 47.389 61.426 47.285 60.581 46.884 59.51 46.376 58.034 45.675 56.363 44.88 52.589 44.791L52.362 44.788C48.871 44.788 46.101 46.596 43.658 48.191 41.47 49.621 39.435 50.935 37.418 50.595 34.077 50.037 32.563 47.839 32.035 46.835 34.07 43.086 44.546 24.183 50.146 14.084M28.493 46.59V85.632C16.441 78.331 8.369 65.091 8.369 50 8.369 27.227 26.753 8.675 49.458 8.383L48.686 9.774C30.196 43.096 28.639 45.904 28.507 46.59zM38.904 90.117A41.4 41.4 0 0 1 31.862 87.466V51.718C33.12 52.717 34.758 53.568 36.862 53.918 37.273 53.987 37.691 54.022 38.106 54.022H38.107C38.378 54.022 38.64 53.996 38.904 53.968zM68.131 87.469A41 41 0 0 1 61.097 90.117V59.064A1.684 1.684 0 1 0 57.727 59.064V90.9C55.221 91.372 52.641 91.63 49.999 91.63S44.778 91.372 42.272 90.9V52.933C43.387 52.384 44.454 51.696 45.5 51.013 47.75 49.544 49.874 48.158 52.362 48.158L52.511 48.16C55.564 48.232 56.779 48.809 58.065 49.419 59.24 49.978 60.572 50.61 62.98 50.752 63.262 50.769 63.535 50.776 63.799 50.776 65.447 50.776 66.925 50.448 68.137 49.954zM71.501 85.636L71.508 46.749V46.415H71.445C71.083 45.393 68.607 40.858 51.638 9.784L50.877 8.391C73.428 8.861 91.631 27.339 91.631 50 91.631 65.093 83.557 78.335 71.501 85.636" fill="#fe7833" data-fill-palette-color="accent"></path></svg></g></g></svg></g><defs></defs></svg><rect width="395.52" height="247.2" fill="none" stroke="none" visibility="hidden"></rect></g></svg></g></svg>